<?xml version="1.0" encoding="UTF-8"?>
<svg width="600px" height="600px" viewBox="0 0 600 600" version="1.1" xmlns="http://www.w3.org/2000/svg" xmlns:xlink="http://www.w3.org/1999/xlink">
    <title>drivers/led-candle/assets/icon</title>
    <g id="/drivers/led-candle/assets/icon" stroke="none" stroke-width="1" fill="none" fill-rule="evenodd">
        <g id="large" transform="translate(0, 141)" fill="#000000" fill-rule="nonzero">
            <path d="M136.5,0 L139.295864,0.00516697725 C172.322599,0.127321139 203.251652,2.4107377 226.662067,6.36026469 L227.64675,6.52813626 C239.827485,8.62657444 249.698789,11.1437652 256.831152,14.0488071 C260.946884,15.7251619 264.28429,17.5736908 266.870354,19.7508664 C270.631009,22.9169166 273,26.9355875 273,31.7928093 C273,32.2077032 272.981728,32.6185415 272.945829,33.024954 L272.919,33.279 L272.939294,33.4382002 C272.969379,33.7110986 272.988484,33.9873052 272.996156,34.2663688 L273,34.546368 L273.000188,150.47275 C248.596582,151.35594 226.221766,153.449835 208.35325,156.528136 L207.487131,156.678736 C195.704005,158.746661 186.131393,161.212933 179.168848,164.048807 C177.406223,164.766731 175.786353,165.516234 174.307116,166.309606 C162.250797,166.997515 149.530749,167.35817 136.5,167.35817 L133.724295,167.352708 C101.860836,167.227223 72.019373,164.944248 49.4111848,160.995576 L48.4327938,160.822846 C36.6377988,158.718014 27.0712372,156.191077 20.1435376,153.268238 L20,153.205669 L20,384.629669 L20.1128624,384.698132 C20.9149685,385.172539 22.0085137,385.71421 23.3686208,386.28228 L23.7141865,386.424823 C29.2920521,388.697442 37.8686106,390.885175 48.7492647,392.760244 C59.7825578,394.661617 72.7443746,396.176388 86.9457485,397.237102 L89.3027578,397.408174 L90.7054875,397.505328 L92.9864635,397.656048 L94.9475982,397.778579 L96.9221361,397.895487 L98.2624991,397.971213 L100.719998,398.102541 L103.291865,398.229749 L104.754807,398.297515 L106.491845,398.373711 L110.20295,398.521195 L112.21098,398.592477 L114.96033,398.68046 L116.798139,398.733163 L119.486064,398.801512 L121.693799,398.850001 C122.738203,398.871306 123.78574,398.890373 124.836208,398.907181 L128.032633,398.951123 L129.563116,398.967226 L131.808182,398.985026 L133.914412,398.995466 L137.305,398.999 L139.206105,398.995023 L142.804718,398.972936 L144.896508,398.95194 L148.823033,398.896243 L153.247845,398.807619 L154.201589,398.784892 C155.395547,398.755636 156.585083,398.723446 157.769889,398.688352 L160.956794,398.586704 L163,398.512 L163.000074,418.527259 C154.382944,418.839118 145.513234,419 136.5,419 L133.65536,418.994651 L130.736609,418.978012 C99.179156,418.736834 69.6972927,416.520444 47.0767637,412.763401 L46.0676104,412.593995 C33.9456832,410.537314 24.0648675,408.069155 16.8565148,405.226764 C12.7481187,403.606746 9.39021706,401.827992 6.75778185,399.759847 C3.34095124,397.07545 0.960614217,393.780731 0.227382582,389.71091 L0.197,389.523 L0.183201106,389.462302 C0.080165765,388.930982 0.0191657062,388.38449 0.00383988003,387.826377 L0,387.546368 L0,34.546368 C0,34.1718106 0.0205921408,33.8020647 0.0607058756,33.4382002 L0.081,33.279 L0.0541714925,33.024954 C0.0302386487,32.7540123 0.0141400444,32.4811036 0.00606684641,32.2063376 L0,31.7928093 C0,26.9355875 2.36899055,22.9169166 6.12964647,19.7508664 C8.71571043,17.5736908 12.0531163,15.7251619 16.1688475,14.0488071 C23.1313926,11.2129328 32.7040055,8.74666054 44.4871306,6.67873645 L45.3532497,6.52813626 C69.530975,2.36291447 101.959079,0 136.5,0 Z M124.78395,58.9072917 L124.579635,59.2543231 C118.927645,68.9037852 115.058866,77.7423719 112.814031,85.7928951 C109.792637,96.6283493 109.847374,105.472151 112.171652,112.593554 C112.985502,114.988635 114.062331,117.145782 115.358496,119.082087 C116.399509,120.637227 117.50079,121.910692 118.580569,122.916323 C118.866647,123.182756 119.129357,123.409642 119.36314,123.597733 L119.705545,123.862325 L119.896664,123.993377 C122.053288,125.541903 122.631311,128.528668 121.169269,130.777753 C119.664226,133.092986 116.56728,133.749776 114.252047,132.244733 C114.051895,132.114623 113.773749,131.918164 113.42902,131.652514 C112.913364,131.255146 112.354867,130.783336 111.765221,130.23418 C110.138591,128.719249 108.533465,126.863165 107.048496,124.644812 C106.028185,123.120598 105.111925,121.504026 104.309494,119.794849 L101.886214,119.909384 C77.3397551,121.115547 55.5771238,123.590096 39.5404496,126.961504 L38.0736776,127.275906 C30.5925211,128.911051 24.6234884,130.710371 20.4484199,132.573742 L19.999,132.777 L19.999,142.095166 C35.5260212,150.940414 81.8131327,157.35817 136.5,157.35817 C191.188065,157.35817 237.476006,150.940133 253.003028,142.094585 L253.003028,132.778723 L252.696739,132.638897 C248.065083,130.549423 241.189909,128.543051 232.465833,126.755307 C215.238194,123.225008 191.705902,120.715294 165.346889,119.650641 C164.350015,122.603892 163.179882,125.64378 161.838298,128.768846 C160.748962,131.306327 157.808847,132.48028 155.271366,131.390945 C152.733885,130.30161 151.559931,127.361494 152.649266,124.824013 L153.177239,123.576314 C161.28345,104.13478 161.621945,89.6611434 154.809325,79.8112884 L154.412056,79.2472662 C153.795961,78.3876116 153.085099,77.4611481 152.226679,76.3934526 L151.317117,75.2759233 C150.539261,74.3304319 147.597514,70.8293634 147.025948,70.1399808 L146.131603,69.0533799 C143.00683,65.2270443 140.75336,62.1301608 138.956996,58.9959508 C138.139678,58.9986449 137.320447,59 136.5,59 C132.563534,59 128.655078,58.9688055 124.78395,58.9072917 Z M136.203335,112.214281 C138.964639,112.188731 141.22401,114.406318 141.249782,117.167621 L141.499782,143.953335 C141.525554,146.714639 139.307968,148.97401 136.546665,149.000005 C133.785361,149.025554 131.52599,146.807968 131.500218,144.046665 L131.250218,117.26095 C131.224446,114.499647 133.442032,112.240276 136.203335,112.214281 Z M19.9984534,46.0293391 L19.999185,121.921811 C24.6144445,120.227976 30.257705,118.713946 36.8778497,117.303517 L37.4831111,117.175424 C53.4702714,113.814425 74.7127406,111.3409 98.6187911,110.062903 L101.187891,109.931108 C100.202967,104.548838 100.134238,98.5158829 101.162562,91.8276762 C102.700409,81.8255297 106.643855,70.7810536 113.2535,58.6311682 C87.8667644,57.8170822 64.5775863,55.6795036 46.1942863,52.482408 C35.452952,50.6143498 26.6607301,48.5167541 19.9984534,46.0293391 Z M253.003547,46.0285923 C246.34103,48.5163343 237.548123,50.6141629 226.805714,52.482408 C206.341822,56.0413456 179.798733,58.2873657 151.04975,58.8567256 C152.076351,60.2448609 153.257935,61.7391913 154.632733,63.406071 L155.665633,64.6460553 L159.176335,68.8389575 L160.056077,69.9118026 C161.389379,71.5545746 162.447698,72.940339 163.380231,74.2865948 C169.869553,83.6549282 171.52993,95.4934712 168.581126,109.572132 L168.537,109.777 L168.722482,109.785354 C193.963106,110.916232 216.57039,113.362563 233.625222,116.786852 L234.473323,116.95888 C241.810682,118.462457 248.0084,120.085324 253.002138,121.920048 L253.003547,46.0285923 Z M133.724,45.141 L133.828671,44.9936803 C132.878665,46.335905 131.959482,47.664503 131.070783,48.9795233 C132.30639,48.9890556 133.545271,48.9951034 134.787214,48.998002 C134.541482,48.1767687 134.298813,47.3196341 134.059882,46.426117 L133.724,45.141 Z M136.5,20 L133.790863,20.0049885 L131.053975,20.0201865 C99.6429177,20.2533875 70.4615305,22.4972202 48.7487347,26.2377959 L47.2793327,26.495325 C37.0944028,28.3112921 29.0376331,30.4026358 23.7131466,32.5713218 C22.7914968,32.9467137 21.9837546,33.3122072 21.2969558,33.6562531 L20.993,33.811 L21.0066739,34.0289447 C21.0319465,34.5445598 21.0161915,35.0582801 20.9616447,35.5657012 C21.2459416,35.6902217 21.5397734,35.814604 21.8424206,35.9390455 C27.8065678,38.3913633 36.7044144,40.6818932 47.9076981,42.6302904 C67.1058536,45.9691001 91.9752959,48.1351702 119.041719,48.7902903 C122.844306,42.7612556 127.259981,36.480436 132.31614,29.9414968 C133.321392,28.641443 134.73024,28.0267826 136.133892,27.9970297 L136.367716,27.9974695 C138.661412,27.9505488 140.940343,29.4660097 141.419649,32.1072222 L141.65958,33.4295037 L141.893518,34.6731487 C143.04483,40.6843594 144.265051,45.4578109 145.516966,48.9449268 C175.834086,48.5695293 203.913966,46.3134793 225.092302,42.6302904 C236.295586,40.6818932 245.193432,38.3913633 251.157579,35.9390455 C251.460586,35.8144564 251.754755,35.6899266 252.039988,35.5655887 C251.983779,35.0573344 251.968077,34.5440852 251.993326,34.0289447 L252.006,33.811 L251.989961,33.8023545 C251.327511,33.4593122 250.539209,33.0924333 249.632433,32.7138257 L249.286853,32.5713218 C243.70882,30.299365 235.13209,28.1122918 224.251265,26.2377959 L222.371236,25.9207265 C199.594165,22.160203 169.067815,20 136.5,20 Z" id="Combined-Shape"></path>
        </g>
        <g id="medium" transform="translate(326, 191)" fill="#000000" fill-rule="nonzero">
            <path d="M136.5,0 L139.295864,0.00516697725 C172.322599,0.127321139 203.251652,2.4107377 226.662067,6.36026469 L227.64675,6.52813626 C239.827485,8.62657444 249.698789,11.1437652 256.831152,14.0488071 C260.946884,15.7251619 264.28429,17.5736908 266.870354,19.7508664 C270.631009,22.9169166 273,26.9355875 273,31.7928093 C273,32.2077032 272.981728,32.6185415 272.945829,33.024954 L272.919,33.279 L272.939294,33.4382002 C272.969379,33.7110986 272.988484,33.9873052 272.996156,34.2663688 L273,34.546368 L273,337.546368 C273,338.06509 272.960474,338.574692 272.884253,339.072302 L272.816,339.462 L272.789199,339.632779 C272.108018,343.573568 269.858276,346.812375 266.607524,349.467243 L266.279134,349.730788 C263.649331,351.804965 260.292649,353.587624 256.183901,355.210813 C249.155608,357.987388 239.579947,360.407041 227.857404,362.435499 L226.974195,362.586899 C202.861372,366.681673 170.714779,369 136.5,369 L133.65536,368.994651 L130.736609,368.978012 C123.703617,368.924262 116.773716,368.772407 109.999879,368.527258 L110,348.513 L110.20295,348.521195 L112.21098,348.592477 L114.96033,348.68046 L116.798139,348.733163 L119.486064,348.801512 L121.693799,348.850001 C122.738203,348.871306 123.78574,348.890373 124.836208,348.907181 L128.032633,348.951123 L129.563116,348.967226 L131.808182,348.985026 L133.914412,348.995466 L137.305,348.999 L139.206105,348.995023 L142.804718,348.972936 L144.896508,348.95194 L148.823033,348.896243 L153.247845,348.807619 L154.201589,348.784892 C155.395547,348.755636 156.585083,348.723446 157.769889,348.688352 L160.956794,348.586704 L163.938907,348.478022 L166.58876,348.370068 L169.312253,348.248497 C170.716736,348.182398 172.113213,348.1124 173.500558,348.038277 L175.084275,347.952101 C193.903429,346.898286 210.985909,345.082206 224.909525,342.645845 C235.585561,340.777747 243.987746,338.607613 249.441369,336.361097 C250.879727,335.768593 252.030592,335.202617 252.865927,334.710674 L253,334.629669 L253,153.205669 L252.856462,153.268238 C246.097731,156.119789 236.827293,158.594514 225.426272,160.668081 L224.567206,160.822846 C201.195971,164.993473 169.866571,167.35817 136.5,167.35817 L133.724295,167.352708 C125.658657,167.320944 117.722579,167.150937 110.000586,166.850666 L110.000042,156.843411 C118.532071,157.180454 127.399736,157.35817 136.5,157.35817 C191.188065,157.35817 237.476006,150.940133 253.003028,142.094585 L253.003028,132.778723 L252.696739,132.638897 C248.065083,130.549423 241.189909,128.543051 232.465833,126.755307 C215.238194,123.225008 191.705902,120.715294 165.346889,119.650641 C164.350015,122.603892 163.179882,125.64378 161.838298,128.768846 C160.748962,131.306327 157.808847,132.48028 155.271366,131.390945 C152.733885,130.30161 151.559931,127.361494 152.649266,124.824013 L153.177239,123.576314 C161.28345,104.13478 161.621945,89.6611434 154.809325,79.8112884 L154.412056,79.2472662 C153.795961,78.3876116 153.085099,77.4611481 152.226679,76.3934526 L151.317117,75.2759233 C150.539261,74.3304319 147.597514,70.8293634 147.025948,70.1399808 L146.131603,69.0533799 C143.00683,65.2270443 140.75336,62.1301608 138.956996,58.9959508 C138.139678,58.9986449 137.320447,59 136.5,59 C132.563534,59 128.655078,58.9688055 124.78395,58.9072917 L124.579635,59.2543231 C118.927645,68.9037852 115.058866,77.7423719 112.814031,85.7928951 C109.792637,96.6283493 109.847374,105.472151 112.171652,112.593554 C112.985502,114.988635 114.062331,117.145782 115.358496,119.082087 C116.399509,120.637227 117.50079,121.910692 118.580569,122.916323 C118.866647,123.182756 119.129357,123.409642 119.36314,123.597733 L119.705545,123.862325 L119.896664,123.993377 C122.053288,125.541903 122.631311,128.528668 121.169269,130.777753 C119.664226,133.092986 116.56728,133.749776 114.252047,132.244733 C114.051895,132.114623 113.773749,131.918164 113.42902,131.652514 C112.913364,131.255146 112.354867,130.783336 111.765221,130.23418 C110.977359,129.50042 110.194542,128.686626 109.427979,127.790399 C108.598498,124.971497 106.900927,122.504025 104.59821,120.390455 L104.309494,119.794849 L103.942,119.811 L103.870354,119.750866 C101.420398,117.688279 98.2961083,115.920654 94.4745406,114.314948 L93.8311525,114.048807 C91.1708422,112.965251 88.1294834,111.935655 84.7293639,110.96162 C89.2397528,110.616939 93.8768723,110.316402 98.6187911,110.062903 L101.187891,109.931108 C100.202967,104.548838 100.134238,98.5158829 101.162562,91.8276762 C102.700409,81.8255297 106.643855,70.7810536 113.2535,58.6311682 C87.8667644,57.8170822 64.5775863,55.6795036 46.1942863,52.482408 C35.452952,50.6143498 26.6607301,48.5167541 19.9984534,46.0293391 L20.000284,101.496628 C13.5298279,101.063443 6.84512946,100.720499 0.000844968945,100.472788 L0,34.546368 C0,34.1718106 0.0205921408,33.8020647 0.0607058756,33.4382002 L0.081,33.279 L0.0541714925,33.024954 C0.0302386487,32.7540123 0.0141400444,32.4811036 0.00606684641,32.2063376 L0,31.7928093 C0,26.9355875 2.36899055,22.9169166 6.12964647,19.7508664 C8.71571043,17.5736908 12.0531163,15.7251619 16.1688475,14.0488071 C23.1313926,11.2129328 32.7040055,8.74666054 44.4871306,6.67873645 L45.3532497,6.52813626 C69.530975,2.36291447 101.959079,0 136.5,0 Z M136.203335,112.214281 C138.964639,112.188731 141.22401,114.406318 141.249782,117.167621 L141.499782,143.953335 C141.525554,146.714639 139.307968,148.97401 136.546665,149.000005 C133.785361,149.025554 131.52599,146.807968 131.500218,144.046665 L131.250218,117.26095 C131.224446,114.499647 133.442032,112.240276 136.203335,112.214281 Z M253.003547,46.0285923 C246.34103,48.5163343 237.548123,50.6141629 226.805714,52.482408 C206.341822,56.0413456 179.798733,58.2873657 151.04975,58.8567256 C152.076351,60.2448609 153.257935,61.7391913 154.632733,63.406071 L155.665633,64.6460553 L159.176335,68.8389575 L160.056077,69.9118026 C161.389379,71.5545746 162.447698,72.940339 163.380231,74.2865948 C169.869553,83.6549282 171.52993,95.4934712 168.581126,109.572132 L168.537,109.777 L168.722482,109.785354 C193.963106,110.916232 216.57039,113.362563 233.625222,116.786852 L234.473323,116.95888 C241.810682,118.462457 248.0084,120.085324 253.002138,121.920048 L253.003547,46.0285923 Z M133.724,45.141 L133.828671,44.9936803 C132.878665,46.335905 131.959482,47.664503 131.070783,48.9795233 C132.30639,48.9890556 133.545271,48.9951034 134.787214,48.998002 C134.541482,48.1767687 134.298813,47.3196341 134.059882,46.426117 L133.724,45.141 Z M136.5,20 L133.790863,20.0049885 L131.053975,20.0201865 C99.6429177,20.2533875 70.4615305,22.4972202 48.7487347,26.2377959 L47.2793327,26.495325 C37.0944028,28.3112921 29.0376331,30.4026358 23.7131466,32.5713218 C22.7914968,32.9467137 21.9837546,33.3122072 21.2969558,33.6562531 L20.993,33.811 L21.0066739,34.0289447 C21.0319465,34.5445598 21.0161915,35.0582801 20.9616447,35.5657012 C21.2459416,35.6902217 21.5397734,35.814604 21.8424206,35.9390455 C27.8065678,38.3913633 36.7044144,40.6818932 47.9076981,42.6302904 C67.1058536,45.9691001 91.9752959,48.1351702 119.041719,48.7902903 C122.844306,42.7612556 127.259981,36.480436 132.31614,29.9414968 C133.321392,28.641443 134.73024,28.0267826 136.133892,27.9970297 L136.367716,27.9974695 C138.661412,27.9505488 140.940343,29.4660097 141.419649,32.1072222 L141.65958,33.4295037 L141.893518,34.6731487 C143.04483,40.6843594 144.265051,45.4578109 145.516966,48.9449268 C175.834086,48.5695293 203.913966,46.3134793 225.092302,42.6302904 C236.295586,40.6818932 245.193432,38.3913633 251.157579,35.9390455 C251.460586,35.8144564 251.754755,35.6899266 252.039988,35.5655887 C251.983779,35.0573344 251.968077,34.5440852 251.993326,34.0289447 L252.006,33.811 L251.989961,33.8023545 C251.327511,33.4593122 250.539209,33.0924333 249.632433,32.7138257 L249.286853,32.5713218 C243.70882,30.299365 235.13209,28.1122918 224.251265,26.2377959 L222.371236,25.9207265 C199.594165,22.160203 169.067815,20 136.5,20 Z" id="Combined-Shape"></path>
        </g>
        <g id="small" transform="translate(163, 291)" fill="#000000" fill-rule="nonzero">
            <path d="M136.203335,112.214281 C138.964639,112.188731 141.22401,114.406318 141.249782,117.167621 L141.499782,143.953335 C141.525554,146.714639 139.307968,148.97401 136.546665,149.000005 C133.785361,149.025554 131.52599,146.807968 131.500218,144.046665 L131.250218,117.26095 C131.224446,114.499647 133.442032,112.240276 136.203335,112.214281 Z" id="Line"></path>
            <path d="M136.5,0 L139.295864,0.00516697725 C172.322599,0.127321139 203.251652,2.4107377 226.662067,6.36026469 L227.64675,6.52813626 C239.827485,8.62657444 249.698789,11.1437652 256.831152,14.0488071 C260.946884,15.7251619 264.28429,17.5736908 266.870354,19.7508664 C270.631009,22.9169166 273,26.9355875 273,31.7928093 C273,32.2077032 272.981728,32.6185415 272.945829,33.024954 L272.919,33.279 L272.939294,33.4382002 C272.969379,33.7110986 272.988484,33.9873052 272.996156,34.2663688 L273,34.546368 L273,277.546368 C273,278.06509 272.960474,278.574692 272.884253,279.072302 L272.816,279.462 L272.789199,279.632779 C272.108018,283.573568 269.858276,286.812375 266.607524,289.467243 L266.279134,289.730788 C263.649331,291.804965 260.292649,293.587624 256.183901,295.210813 C249.155608,297.987388 239.579947,300.407041 227.857404,302.435499 L226.974195,302.586899 C202.861372,306.681673 170.714779,309 136.5,309 L133.65536,308.994651 L130.736609,308.978012 C99.179156,308.736834 69.6972927,306.520444 47.0767637,302.763401 L46.0676104,302.593995 C33.9456832,300.537314 24.0648675,298.069155 16.8565148,295.226764 C12.7481187,293.606746 9.39021706,291.827992 6.75778185,289.759847 C3.34095124,287.07545 0.960614217,283.780731 0.227382582,279.71091 L0.197,279.523 L0.183201106,279.462302 C0.080165765,278.930982 0.0191657062,278.38449 0.00383988003,277.826377 L0,277.546368 L0,34.546368 C0,34.1718106 0.0205921408,33.8020647 0.0607058756,33.4382002 L0.081,33.279 L0.0541714925,33.024954 C0.0302386487,32.7540123 0.0141400444,32.4811036 0.00606684641,32.2063376 L0,31.7928093 C0,26.9355875 2.36899055,22.9169166 6.12964647,19.7508664 C8.71571043,17.5736908 12.0531163,15.7251619 16.1688475,14.0488071 C23.1313926,11.2129328 32.7040055,8.74666054 44.4871306,6.67873645 L45.3532497,6.52813626 C69.530975,2.36291447 101.959079,0 136.5,0 Z M253,153.205669 L252.856462,153.268238 C246.097731,156.119789 236.827293,158.594514 225.426272,160.668081 L224.567206,160.822846 C201.195971,164.993473 169.866571,167.35817 136.5,167.35817 L133.724295,167.352708 C101.860836,167.227223 72.019373,164.944248 49.4111848,160.995576 L48.4327938,160.822846 C36.6377988,158.718014 27.0712372,156.191077 20.1435376,153.268238 L20,153.205669 L20,274.629669 L20.1128624,274.698132 C20.9149685,275.172539 22.0085137,275.71421 23.3686208,276.28228 L23.7141865,276.424823 C29.2920521,278.697442 37.8686106,280.885175 48.7492647,282.760244 C59.7825578,284.661617 72.7443746,286.176388 86.9457485,287.237102 L89.3027578,287.408174 L90.7054875,287.505328 L92.9864635,287.656048 L94.9475982,287.778579 L96.9221361,287.895487 L98.2624991,287.971213 L100.719998,288.102541 L103.291865,288.229749 L104.754807,288.297515 L106.491845,288.373711 L110.20295,288.521195 L112.21098,288.592477 L114.96033,288.68046 L116.798139,288.733163 L119.486064,288.801512 L121.693799,288.850001 C122.738203,288.871306 123.78574,288.890373 124.836208,288.907181 L128.032633,288.951123 L129.563116,288.967226 L131.808182,288.985026 L133.914412,288.995466 L137.305,288.999 L139.206105,288.995023 L142.804718,288.972936 L144.896508,288.95194 L148.823033,288.896243 L153.247845,288.807619 L154.201589,288.784892 C155.395547,288.755636 156.585083,288.723446 157.769889,288.688352 L160.956794,288.586704 L163.938907,288.478022 L166.58876,288.370068 L169.312253,288.248497 C170.716736,288.182398 172.113213,288.1124 173.500558,288.038277 L175.084275,287.952101 C193.903429,286.898286 210.985909,285.082206 224.909525,282.645845 C235.585561,280.777747 243.987746,278.607613 249.441369,276.361097 C250.879727,275.768593 252.030592,275.202617 252.865927,274.710674 L253,274.629669 L253,153.205669 Z M134.059882,46.426117 L133.724,45.141 L133.828671,44.9936803 C122.95718,60.3535642 116.122208,73.9289661 112.814031,85.7928951 C109.792637,96.6283493 109.847374,105.472151 112.171652,112.593554 C112.985502,114.988635 114.062331,117.145782 115.358496,119.082087 C116.399509,120.637227 117.50079,121.910692 118.580569,122.916323 C118.866647,123.182756 119.129357,123.409642 119.36314,123.597733 L119.705545,123.862325 L119.896664,123.993377 C122.053288,125.541903 122.631311,128.528668 121.169269,130.777753 C119.664226,133.092986 116.56728,133.749776 114.252047,132.244733 C114.051895,132.114623 113.773749,131.918164 113.42902,131.652514 C112.913364,131.255146 112.354867,130.783336 111.765221,130.23418 C110.138591,128.719249 108.533465,126.863165 107.048496,124.644812 C106.028185,123.120598 105.111925,121.504026 104.309494,119.794849 L101.886214,119.909384 C77.3397551,121.115547 55.5771238,123.590096 39.5404496,126.961504 L38.0736776,127.275906 C30.5925211,128.911051 24.6234884,130.710371 20.4484199,132.573742 L19.999,132.777 L19.999,142.095166 C35.5260212,150.940414 81.8131327,157.35817 136.5,157.35817 C191.188065,157.35817 237.476006,150.940133 253.003028,142.094585 L253.003028,132.778723 L252.696739,132.638897 C248.065083,130.549423 241.189909,128.543051 232.465833,126.755307 C215.238194,123.225008 191.705902,120.715294 165.346889,119.650641 C164.350015,122.603892 163.179882,125.64378 161.838298,128.768846 C160.748962,131.306327 157.808847,132.48028 155.271366,131.390945 C152.733885,130.30161 151.559931,127.361494 152.649266,124.824013 L153.177239,123.576314 C161.28345,104.13478 161.621945,89.6611434 154.809325,79.8112884 L154.412056,79.2472662 C153.795961,78.3876116 153.085099,77.4611481 152.226679,76.3934526 L151.317117,75.2759233 C150.539261,74.3304319 147.597514,70.8293634 147.025948,70.1399808 L146.131603,69.0533799 C142.21019,64.2515443 139.660976,60.5985109 137.665348,56.5788258 C136.370121,53.9699178 135.174338,50.5937884 134.059882,46.426117 Z M136.5,20 L133.790863,20.0049885 L131.053975,20.0201865 C99.6429177,20.2533875 70.4615305,22.4972202 48.7487347,26.2377959 L47.2793327,26.495325 C37.0944028,28.3112921 29.0376331,30.4026358 23.7131466,32.5713218 C22.7914968,32.9467137 21.9837546,33.3122072 21.2969558,33.6562531 L20.993,33.811 L21.0066739,34.0289447 C21.0833861,35.5940357 20.7820877,37.1416697 20.1653039,38.5486664 L19.999185,38.905 L19.999185,121.921811 C24.6144445,120.227976 30.257705,118.713946 36.8778497,117.303517 L37.4831111,117.175424 C53.4702714,113.814425 74.7127406,111.3409 98.6187911,110.062903 L101.187891,109.931108 C100.202967,104.548838 100.134238,98.5158829 101.162562,91.8276762 C103.833793,74.4540079 113.763073,53.9354771 132.31614,29.9414968 C133.321392,28.641443 134.73024,28.0267826 136.133892,27.9970297 L136.367716,27.9974695 C138.661412,27.9505488 140.940343,29.4660097 141.419649,32.1072222 L141.65958,33.4295037 L141.893518,34.6731487 C143.459555,42.8497124 145.153087,48.7361789 146.880454,52.2102975 C148.549516,55.5671515 150.865873,58.8389249 154.632733,63.406071 L155.665633,64.6460553 L159.176335,68.8389575 L160.056077,69.9118026 C161.389379,71.5545746 162.447698,72.940339 163.380231,74.2865948 C169.869553,83.6549282 171.52993,95.4934712 168.581126,109.572132 L168.537,109.777 L168.722482,109.785354 C193.963106,110.916232 216.57039,113.362563 233.625222,116.786852 L234.473323,116.95888 C241.810682,118.462457 248.0084,120.085324 253.002138,121.920048 L253.002138,38.907 L252.982603,38.8708053 C252.266503,37.3796639 251.910713,35.7144273 251.993326,34.0289447 L252.006,33.811 L251.989961,33.8023545 C251.327511,33.4593122 250.539209,33.0924333 249.632433,32.7138257 L249.286853,32.5713218 C243.70882,30.299365 235.13209,28.1122918 224.251265,26.2377959 L222.371236,25.9207265 C199.594165,22.160203 169.067815,20 136.5,20 Z" id="Shape"></path>
            <path d="M136.5,5 C170.776313,5 202.928999,7.36511988 226.805714,11.517592 C253.358051,16.1353899 268,22.1558168 268,32 C268,41.8441832 253.358051,47.8646101 226.805714,52.482408 C202.928999,56.6348801 170.776313,59 136.5,59 C102.223687,59 70.0710012,56.6348801 46.1942863,52.482408 C19.6419487,47.8646101 5,41.8441832 5,32 C5,22.1558168 19.6419487,16.1353899 46.1942863,11.517592 C70.0710012,7.36511988 102.223687,5 136.5,5 Z M136.5,15 C102.762916,15 71.171476,17.3238352 47.9076981,21.3697096 C36.7044144,23.3181068 27.8065678,25.6086367 21.8424206,28.0609545 C19.0593593,29.2052843 17.0217344,30.3446179 15.8080333,31.3761326 C15.5316114,31.6110612 15.3216114,31.8201975 15.173034,31.9953007 C15.291896,32.1447819 15.4500683,32.3066456 15.6501108,32.4860712 L15.8080333,32.6238674 C17.0217344,33.6553821 19.0593593,34.7947157 21.8424206,35.9390455 C27.8065678,38.3913633 36.7044144,40.6818932 47.9076981,42.6302904 C71.171476,46.6761648 102.762916,49 136.5,49 C170.237084,49 201.828524,46.6761648 225.092302,42.6302904 C236.295586,40.6818932 245.193432,38.3913633 251.157579,35.9390455 C253.940641,34.7947157 255.978266,33.6553821 257.191967,32.6238674 C257.468389,32.3889388 257.678389,32.1798025 257.826966,32.0046993 L257.83,31.999 C257.708104,31.8552181 257.549932,31.6933544 257.349889,31.5139288 L257.191967,31.3761326 C255.978266,30.3446179 253.940641,29.2052843 251.157579,28.0609545 C245.193432,25.6086367 236.295586,23.3181068 225.092302,21.3697096 C201.828524,17.3238352 170.237084,15 136.5,15 Z" id="Oval"></path>
        </g>
    </g>
</svg>