<?xml version="1.0" encoding="UTF-8"?>
<svg width="600px" height="600px" viewBox="0 0 600 600" version="1.1" xmlns="http://www.w3.org/2000/svg" xmlns:xlink="http://www.w3.org/1999/xlink">
    <title>assets/icon</title>
    <g id="/assets/icon" stroke="none" stroke-width="1" fill="none" fill-rule="evenodd">
        <path d="M599.9807,548.464259 C599.974557,560.483114 599.980991,566.661694 600,567 C443.293247,567.842612 328.743847,567.331347 256.351802,565.466204 C177.354582,563.430713 108.375578,533.978579 56.8743966,471.353826 C21.6556671,428.528346 4.12209491,378.540335 0.74467187,323.386579 C-1.0729199,293.704817 0.216643748,264.300828 7.0698444,235.222529 C16.8039342,193.920338 35.4036087,157.081114 63.156112,125.112057 C103.238499,78.9397386 154.282538,51.4471182 213.643481,38.4233427 C229.038071,35.0457734 244.48508,33.6997263 260.195968,34.0745108 C272.238726,34.3617872 284.301731,34.415507 296.342088,34.0819426 C343.453498,32.7767466 386.372195,47.1661722 426.672081,69.9094589 C484.914867,102.778795 524.556218,151.59061 545.68719,214.901264 C558.513957,253.331352 561.409034,292.997319 556.047991,333.206718 C551.705374,365.777226 541.045386,395.97421 521.89188,422.865263 C506.408362,444.603653 486.610722,461.428801 462.780647,473.495286 C460.762841,474.517056 458.834855,475.71601 456.865134,476.832681 C456.923282,477.469817 456.981431,478.106952 457.039581,478.744088 C459.321575,478.744088 461.60349,478.744011 463.885406,478.744088 C491.507913,478.744604 536.879444,478.829908 600,479 M168.529414,182.398253 C121.922229,231.347944 108.747995,288.550189 129.603163,352.518181 C155.198425,431.025273 240.375094,476.075339 319.761338,454.691104 C436.471813,423.252888 477.580186,274.061179 393.700738,186.348004 C332.400768,122.246276 234.066058,120.241828 168.529414,182.398253 Z" id="Shape" fill="#000000" fill-rule="nonzero"></path>
    </g>
</svg>