<?xml version="1.0" encoding="UTF-8"?>
<svg width="960px" height="960px" viewBox="0 0 960 960" version="1.1" xmlns="http://www.w3.org/2000/svg" xmlns:xlink="http://www.w3.org/1999/xlink">
    <title>custom-capabilities/mode_light_capability</title>
    <g id="custom-capabilities/mode_light_capability" stroke="none" stroke-width="1" fill="none" fill-rule="evenodd">
        <g id="noun-light-1280272" transform="translate(102.804, 0)" fill="#000000" fill-rule="nonzero">
            <path d="M359.175595,0.394600252 C172.040395,8.95096031 18.2509111,152.64824 1.57739213,334.738002 C-8.07562597,440.044151 26.8072689,540.741381 99.8617034,617.965534 C166.336155,688.387489 203.192772,780.968901 203.192772,878.815351 C203.192772,923.569527 240.049389,959.986945 285.681964,959.986945 L289.443282,959.986945 C281.385932,960.010154 341.194301,960.010154 468.868389,959.986945 C514.281364,959.986945 551.357581,923.569529 551.357581,878.815351 L551.357581,856.437594 C551.357581,771.315883 586.897938,687.730032 651.177752,621.475116 C717.652225,552.807322 754.508842,463.079371 754.508842,368.524239 C754.508842,159.44914 575.271195,-9.25842004 359.175595,0.394600252 Z" id="Shape"></path>
        </g>
    </g>
</svg>